<?xml version="1.0" encoding="utf-8"?>
<!-- Generator: Adobe Illustrator 16.0.0, SVG Export Plug-In . SVG Version: 6.00 Build 0)  -->
<!DOCTYPE svg PUBLIC "-//W3C//DTD SVG 1.1//EN" "http://www.w3.org/Graphics/SVG/1.1/DTD/svg11.dtd">
<svg version="1.1" id="Layer_1" xmlns="http://www.w3.org/2000/svg" xmlns:xlink="http://www.w3.org/1999/xlink" x="0px" y="0px"
	 width="775.585px" height="1000.005px" viewBox="0 0 775.585 1000.005" enable-background="new 0 0 775.585 1000.005"
	 xml:space="preserve">
<g>
	<path fill="#AE1F24" d="M391.277,0C179.031,0,6.975,172.067,6.975,384.302c0,212.252,172.056,384.314,384.303,384.314
		c212.234,0,384.308-172.063,384.308-384.314C775.585,172.067,603.512,0,391.277,0 M730.24,279.607c-80.615,0-372.524,0-376.448,0
		c-2.61,0-4.225,1.642-5.082,3.067c0.796-1.442,1.553-2.806,2.221-4.075c0.278-0.468,26.897-47.227,45.417-75.388
		c0.301-0.412,29.76-41.176,48.886-56.84l0.345-0.312c0.279-0.273,28.323-27.688,66.143-46.559c0.2-0.089,19.493-9.163,38.019-9.163
		c9.508,0,17.067,2.394,22.601,7.226c0.445,0.378,10.732,9.279,3.763,31.657c-0.044,0.172-5.354,17.857-26.774,38.364
		c-0.179,0.195-1.859,1.938-3.329,4.047c-4.164,5.962-2.483,9.475-0.936,11.139c1.08,1.186,2.672,1.882,4.42,1.882
		c2.828,0,6.046-1.759,10.242-5.494l70.595-55.977h0.012l0.223-0.184C676.423,165.02,711.447,218.67,730.24,279.607 M573.041,80.114
		c6.446,3.863,12.893,7.682,19.06,11.935C585.934,87.807,579.477,83.977,573.041,80.114 M607.42,103.493
		c5.322,4.103,10.555,8.289,15.631,12.681C617.975,111.782,612.742,107.596,607.42,103.493 M391.277,29.597
		c61.004,0,118.395,15.425,168.526,42.545c-2.06-0.272-6.435-0.751-12.97-0.751c-10.688,0-21.476,1.286-32.086,3.818
		c-2.438,0.596-60.085,15.186-120.059,66.169c-3.869,2.733-49.309,35.804-96.507,108.219c-0.818,1.425-81.873,141.707-88.43,152.707
		c-0.306,0.562-31.395,54.207-49.169,70.25c0,0-18.297,18.264-39.455,23.063c-0.078,0.011-8.027,1.97-17.763,2.065
		c-4.342,0.033-13.705-1.002-19.951-3.307c-11.706-3.579-20.301-14.25-20.919-27.031c-0.456-5.995,0.217-16.394,6.797-29.948
		l0.167-0.401c0.072-0.178,7.47-18.731,44.054-65.813c2.961-4.002,7.259-11.389,2.588-15.981c-0.54-0.49-2.054-1.653-4.548-1.653
		c-1.804,0-3.718,0.618-5.678,1.826l-0.768,0.579l-66.86,61.655c-1.024-10.982-1.687-22.06-1.687-33.305
		C36.561,188.405,195.374,29.597,391.277,29.597 M55.882,498.99c2.405,2.967,4.821,5.951,7.932,8.333
		c0.496,0.445,12.347,10.621,38.671,10.621c8.11,0,16.839-0.979,25.734-2.827c1.675-0.279,41.209-7.081,76.562-38.755
		c2.461-1.87,24.955-19.244,47.655-49.898c0.373-0.468,38.671-46.492,62.64-88.263c0.997-1.559,22.678-35.888,33.622-55.515
		c-0.512,0.852-0.741,1.642-0.741,1.948l-0.011,0.067c0,10.053,5.928,12.976,6.313,13.131c4.837,2.533,5.177,6.535,5.199,6.841
		v432.748C217.768,724.796,100.309,628.908,55.882,498.99 M421.688,737.488V427.716c5.099-4.692,24.358-20.279,54.284-20.279
		c6.825,0,13.872,0.807,20.886,2.394c0.4,0.089,40.814,9.836,75.004,23.769c1.447,0.579,35.781,14.228,55.977,16.282
		c0.234,0.033,5.968,0.796,14.641,0.796c15.875,0,38.709-2.51,57.436-14.49l0.411-0.284c5.311-4.186,8.261-6.752,6.881-10.81
		c-0.68-1.753-2.461-3.635-5.522-3.635c-1.514,0-3.184,0.457-5.945,1.219l-2.338,0.629c-3.729,0.818-14.662,2.917-20.362,2.917
		c-0.779,0-14.417,0.457-31.896-3.875c0,0-16.333-2.989-60.798-22.004c-1.993-0.891-49.053-21.57-81.661-21.57
		c0,0-1.191-0.011-2.183-0.011c-6.991,0-32.887,1.38-72.175,19.132c-0.401,0.178-1.637,0.59-2.405,0.59l-0.233,0.011l-0.012-93.902
		c0,0,241.688,0,314.988,0c5.9,25.662,9.318,52.259,9.318,79.707C745.982,569.947,603.323,722.024,421.688,737.488"/>
	<polygon fill="#AE1F24" points="205.043,866.498 162.359,866.498 162.359,999.984 137.883,999.984 137.883,866.498 95.204,866.498 
		95.204,844.744 205.043,844.744 	"/>
	<path fill="#AE1F24" d="M240.067,987.648c-6.067-4.609-10.671-10.254-13.811-16.744c-3.551-7.113-5.232-15.074-5.232-23.646
		V844.744H245.3v102.514c0,9.219,3.351,16.32,9.619,21.131c5.862,4.609,14.435,7.325,23.647,7.325
		c8.996,0,17.579-2.716,23.641-7.325c6.273-4.811,9.418-11.912,9.418-21.131V844.744h24.476v102.514
		c0,8.572-1.882,16.533-5.232,23.646c-3.351,6.49-7.943,12.135-13.805,16.744c-10.248,7.949-23.853,12.336-38.498,12.336
		C263.915,999.984,250.315,995.597,240.067,987.648"/>
	<path fill="#AE1F24" d="M467.878,922.364c0,21.966-6.49,40.803-18.837,54.396c-6.691,7.526-15.052,13.383-24.894,17.168
		c-10.042,3.963-21.342,6.057-33.895,6.057h-28.662h-8.161v-155.24h24.27h12.553c12.553,0,23.853,1.871,33.895,6.057
		c9.842,3.773,18.202,9.641,24.894,17.167C461.388,881.561,467.878,900.387,467.878,922.364 M443.608,922.364
		c0-15.897-4.387-29.079-12.559-38.075c-9.207-10.254-22.812-15.274-40.797-15.274H377.7v106.699h12.553
		c17.985,0,31.59-5.232,40.797-15.274C439.222,951.443,443.608,938.05,443.608,922.364"/>
	<rect x="485.669" y="844.744" fill="#AE1F24" width="24.271" height="155.24"/>
	<path fill="#AE1F24" d="M574.277,993.927c-9.419-3.986-17.58-9.619-24.693-16.744c-7.114-7.104-12.759-15.275-16.733-24.693
		c-3.985-9.396-6.067-19.661-6.067-30.115c0-10.465,2.082-20.719,6.067-30.349c3.975-9.207,9.619-17.356,16.733-24.682
		c7.113-7.114,15.274-12.558,24.693-16.521c9.418-3.985,19.66-6.079,30.125-6.079c10.455,0,20.719,2.094,30.338,6.079
		c9.207,3.964,17.368,9.407,24.693,16.521c7.104,7.325,12.559,15.475,16.521,24.682c3.975,9.63,6.079,19.884,6.079,30.349
		c0,10.454-2.104,20.719-6.079,30.115c-3.963,9.418-9.418,17.59-16.521,24.693c-7.325,7.125-15.486,12.758-24.693,16.744
		c-9.619,3.975-19.883,6.057-30.338,6.057C593.938,999.984,583.695,997.902,574.277,993.927 M566.74,884.711
		c-10.043,10.042-15.688,23.425-15.688,37.663c0,14.217,5.645,27.61,15.688,37.652c10.041,10.053,23.435,15.687,37.662,15.687
		c14.229,0,27.61-5.634,37.664-15.687c10.042-10.042,15.697-23.436,15.697-37.652c0-14.238-5.655-27.621-15.697-37.663
		c-10.054-10.042-23.436-15.697-37.664-15.697C590.175,869.014,576.781,874.669,566.74,884.711"/>
	<path fill="#AE1F24" d="M773.625,969.211c-4.353,14.874-17.779,26.653-34.512,29.948c-3.106,0.623-6.201,0.846-9.308,0.846
		c-6.19,0-12.391-1.047-18.181-3.317c-9.696-3.93-18.18-10.331-25.405-19.628l19.005-14.873c4.342,5.777,9.507,9.92,15.085,11.979
		c4.542,1.859,9.496,2.271,14.05,1.236c7.849-1.447,14.262-6.613,16.121-12.803c2.059-7.025-2.695-13.227-7.025-17.368
		c-6.824-6.413-17.98-17.345-18.814-18.181l-18.793-17.779c-5.789-5.566-9.719-11.779-11.779-18.369
		c-2.07-6.413-2.282-13.227-0.412-19.428c1.859-6.613,5.778-12.413,11.356-17.156c5.165-4.342,11.567-7.437,18.392-8.684
		c7.448-1.647,15.297-1.035,22.733,1.659c7.849,3.106,14.874,8.272,20.875,15.485l-18.804,15.098
		c-7.85-9.508-15.909-9.508-20.263-8.684c-5.366,1.035-9.908,4.541-11.155,8.895c-0.823,2.883-0.612,7.637,5.789,13.838
		l25.629,24.582c3.719,3.719,8.25,8.061,11.567,11.167c6.612,5.989,11.155,12.803,13.438,20.05
		C775.474,954.739,775.686,962.187,773.625,969.211"/>
	<path fill="#AE1F24" d="M87.405,969.211c-4.342,14.874-17.773,26.653-34.507,29.948c-3.101,0.623-6.207,0.846-9.307,0.846
		c-6.19,0-12.391-1.047-18.18-3.317C15.708,992.758,7.225,986.357,0,977.06l19.004-14.873c4.342,5.777,9.508,9.92,15.091,11.979
		c4.554,1.859,9.497,2.271,14.044,1.236c7.86-1.447,14.267-6.613,16.121-12.803c2.065-7.025-2.688-13.227-7.02-17.368
		c-6.83-6.413-17.979-17.345-18.809-18.181l-18.804-17.779c-5.79-5.566-9.708-11.779-11.773-18.369
		c-2.077-6.413-2.282-13.227-0.412-19.428c1.859-6.613,5.783-12.413,11.355-17.156c5.166-4.342,11.573-7.437,18.387-8.684
		c7.448-1.647,15.302-1.035,22.733,1.659c7.854,3.106,14.879,8.272,20.875,15.485l-18.798,15.098
		c-7.854-9.508-15.915-9.508-20.256-8.684c-5.372,1.035-9.919,4.541-11.161,8.895c-0.824,2.883-0.618,7.637,5.79,13.838
		l25.628,24.582c3.713,3.719,8.255,8.061,11.573,11.167c6.607,5.989,11.144,12.803,13.426,20.05
		C89.265,954.739,89.465,962.187,87.405,969.211"/>
</g>
</svg>
